<svg enable-background="new 0 0 512 512" viewBox="0 0 512 512" xmlns="http://www.w3.org/2000/svg"><g fill="#d6d5d8"><path d="m68.386 188.213c-43.285 75.113-15.768 189.101 32.098 258.216 23.893 34.554 48.083 65.571 81.215 65.571.624 0 1.251-.012 1.892-.037 15.566-.621 26.815-5.414 37.692-10.045 12.212-5.204 24.84-10.584 44.648-10.584 18.843 0 30.869 5.206 42.501 10.238 11.462 4.959 23.268 10.089 40.712 9.762 37.322-.695 60.236-34.165 80.453-63.691 21.094-30.829 31.678-60.762 35.249-72.2l.144-.455c.678-2.033-.282-4.252-2.229-5.147-.055-.025-.252-.107-.309-.131-6.57-2.688-64.22-28.262-64.826-97.968-.564-56.632 43.246-86.622 52.033-92.058l.41-.255c.953-.613 1.617-1.585 1.84-2.696.227-1.11-.01-2.265-.646-3.198-30.24-44.254-76.59-50.923-95.249-51.725-2.708-.27-5.504-.406-8.311-.406-21.915 0-42.912 8.278-59.78 14.929-11.643 4.591-21.699 8.556-28.637 8.556-7.794 0-17.908-4.014-29.62-8.66-15.662-6.216-33.414-13.26-52.207-13.26-.448 0-.89.005-1.324.013-43.697.642-84.986 25.641-107.749 65.231z"/><path d="m356.051.003c-26.463 1.078-58.203 17.366-77.178 39.589-16.124 18.679-31.875 49.822-27.724 81.213.26 1.964 1.858 3.48 3.834 3.633 1.784.139 3.611.21 5.424.212 25.875 0 53.787-14.314 72.847-37.363 20.062-24.338 30.206-55.571 27.138-83.548-.238-2.193-2.17-3.821-4.341-3.736z"/></g></svg>