<svg enable-background="new 0 0 24 24" viewBox="0 0 24 24" xmlns="http://www.w3.org/2000/svg"><circle cx="12" cy="12" fill="#f0f0f0" r="10"/><g fill="#0052b4"><path d="m4.1 5.9c-.8 1-1.4 2.2-1.7 3.5h5.2z"/><path d="m21.7 9.4c-.3-1.3-.9-2.5-1.7-3.5l-3.5 3.5z"/><path d="m2.3 14.6c.3 1.3.9 2.5 1.7 3.5l3.5-3.5z"/><path d="m18.1 4.1c-1-.8-2.2-1.4-3.5-1.7v5.2z"/><path d="m5.9 19.9c1 .8 2.2 1.4 3.5 1.7v-5.2z"/><path d="m9.4 2.3c-1.3.4-2.5 1-3.5 1.8l3.5 3.5z"/><path d="m14.6 21.7c1.3-.3 2.5-.9 3.5-1.7l-3.5-3.5z"/><path d="m16.5 14.6 3.5 3.5c.8-1 1.4-2.2 1.7-3.5z"/></g><path d="m21.9 10.7h-8.6v-8.6c-.4-.1-.9-.1-1.3-.1s-.9 0-1.3.1v8.6h-8.6c-.1.4-.1.9-.1 1.3s0 .9.1 1.3h8.6v8.6c.4.1.9.1 1.3.1s.9 0 1.3-.1v-8.6h8.6c.1-.4.1-.9.1-1.3s0-.9-.1-1.3z" fill="#d80027"/><path d="m14.6 14.6 4.5 4.5.6-.6-3.8-3.8z" fill="#d80027"/><path d="m9.4 14.6-4.5 4.5c.2.2.4.4.6.6l3.8-3.8z" fill="#d80027"/><path d="m9.4 9.4-4.5-4.5c-.2.2-.4.4-.6.7l3.8 3.8z" fill="#d80027"/><path d="m14.6 9.4 4.5-4.5c-.2-.2-.4-.4-.6-.6l-3.8 3.8v1.3z" fill="#d80027"/></svg>