<svg enable-background="new 0 0 32 32" viewBox="0 0 32 32" xmlns="http://www.w3.org/2000/svg"><path d="m16 0c-8.8 0-16 7.2-16 16s7.2 16 16 16 16-7.2 16-16-7.2-16-16-16zm0 6.9c1.2 0 2.3.2 3.4.7-.4 0-.8-.1-1.3-.1v.7s.3 0 .8.2l.6.3c-.2 0-.4.1-.6.2l-.6.3.7.2c.6.2 1.2.5 1.7.8h.1.1s0 0 .1.1c.1 0 .1.1.2.1.7.5 1.1 1 1.4 1.5-.1 0-.2-.1-.3-.1l-.5-.1.1.5c.3 1 .4 1.9.3 2.7-.1-.1-.2-.2-.2-.3l-.7-.7.1.9c.1 1.1.1 2-.1 2.7 0 .1 0 .2-.1.3v-.9l-.6.9c-1.1 1.6-2.3 2.5-3.6 2.5-.6 0-1.1-.1-1.5-.2s-.8-.4-1.2-.6c.7-.1 1.3-.2 1.8-.5l1.2-.8h.1.1.1.1c.2 0 .4-.1.5-.3s.1-.4 0-.6c-.1-.2-.4-.4-.8-.6-.7-.4-1.5-.3-2.2.2-.6.3-1 .3-1.5 0-.3-.2-.7-.5-1.1-1l-.1-.1c0-.1 0-.2.1-.3 0 0 .1-.1.1-.1.4.1.8.1 1.3.3l.4.1v-.4c.1-.6 0-1.1-.3-1.6.2-.1.3-.3.5-.4s.4-.2.5-.3c.3-.1.4-.4.5-.6.1-.1.1-.2.1-.4s-.1-.4-.2-.5l-.1-.1h-.1c-.3 0-.6 0-.9 0 0 0-.1 0-.2-.1s-.2-.1-.3-.2l-.6-.6h-.1c.1-.3.2-.6.3-.8l.1-.1c.2-.3.5-.5.9-.9l1-.7-1.2.2c-1 .1-1.8.5-2.6 1.2-.7 0-1.4.1-2.2.4 0 0 0 0-.1 0 1.7-1.9 4.1-3 6.6-3zm9.7 8.8c0 4.8-3.5 8.8-8.1 9.6 0 0-.2 0-.2.1-.2 0-.5.1-.7.1h-1.5c-.2 0-.3-.1-.5-.1-.2-.1-.4-.1-.6-.1l-.2-.1c-1-.2-1.9-.6-2.7-1.1-1.2-.7-2.2-1.6-3-2.7l-.1-.1c-1.1-1.6-1.8-3.5-1.8-5.6l.2.2v-.2c.1-.5.2-1.1.4-1.6l-.5.4v-.5c0-.4.1-.7.4-1.2.1-.2.2-.3.2-.4.1-.1.1-.2.2-.3l0-.1.2-.3c0-1.8.3-3 1-3.7.1.6.2 1.1.4 1.5s0 .1-.1.1l-.1.2.2.2c.2.2.4.4.6.5l.1.1.1-.1c.7-.3 1.5-.4 2-.2l.2.1.1-.1c.4-.3.7-.6 1.1-.8-.2.3-.3.7-.4 1.1l-.2.2.3.3.2.1.5.5c.1.1.2.2.3.2.1.1.2.1.3.2.3.1.6.1.9.1 0 .1-.1.2-.1.2-.2.1-.4.2-.6.4s-.5.4-.7.6l-.2.2.1.2c.2.3.3.6.3 1-.4-.1-.7-.1-1-.2h-.1c-.3 0-.5.1-.7.3-.1.2-.2.4-.2.7v.4l.2.3c0 .1.1.1.1.2v-.1.1c.4.5.8.8 1.1 1 .7.5 1.4.5 2.2.1.6-.4 1.1-.4 1.6-.2.3.2.4.3.5.4-.2-.1-.4 0-.6 0l-1.2.8c-.6.3-1.4.5-2.3.4h-.9l.6.6c.6.6 1.4 1.1 2.1 1.3.5.2 1.1.3 1.7.3 1.2-.1 2.4-.7 3.4-1.8 0 .1-.1.2-.1.3l-.4 1.3 1-1c.5-.6.9-1.2 1-2.1.1-.4.1-.8.1-1.2l.2.7.3-1c.3-1 .3-2.1.1-3.3 0 0 0 .1.1.1l.5.8.1-1c.1-1.1-.6-2.1-1.8-3s-.1-.1-.1-.1c-.1-.1-.1-.1-.2-.2h-.1c-.2-.1-.3-.2-.5-.3l.6.2-.5-.7c-.1-.2-.3-.4-.5-.5.5.1.9.2 1.3.4l1.8.8c.8.8 1.3 1.7 1.6 2.5 0-.2 0-.4-.1-.6.2.5.3 1 .4 1.6.2.7.2 1.3.2 1.3.1-.1.2-.4.2-1 .2.7.2 1.5.1 2.4z" fill="#fff"/></svg>