<svg enable-background="new 0 0 32 32" viewBox="0 0 32 32" xmlns="http://www.w3.org/2000/svg"><g fill="#fff"><path d="m16.1 4c-6.7 0-12.1 5.4-12.1 12.1s5.4 12.1 12.1 12.1 12.1-5.4 12.1-12.1-5.4-12.1-12.1-12.1zm-5.2 8.1c.9 0 1.6.7 1.6 1.6s-.7 1.6-1.6 1.6-1.6-.7-1.6-1.6.7-1.6 1.6-1.6zm11 6.9c-.4 1.3-1.2 2.3-2.3 3.1s-2.4 1.2-3.7 1.2-2.6-.4-3.7-1.2-1.9-1.8-2.3-3.1c-.2-.7-.3-1.3-.3-2 0-.2.2-.4.4-.4h11.8c.2 0 .4.2.4.4 0 .7-.1 1.3-.3 2zm-.6-3.7c-.9 0-1.6-.7-1.6-1.6s.7-1.6 1.6-1.6 1.6.7 1.6 1.6-.7 1.6-1.6 1.6zm-10.7 3.1h10.5c.1-.3.2-.7.2-1h-10.8c0 .3.1.7.1 1zm1.8 2.7c.5-.6 1.3-1 2.1-1 .5 0 1 .1 1.4.4.4-.3.9-.4 1.4-.4.8 0 1.6.4 2.1 1 .6-.5 1.1-1.1 1.4-1.8h-9.8c.3.7.8 1.3 1.4 1.8zm3.8.3c-.2.1-.4.1-.5 0-.3-.3-.7-.4-1.2-.4s-1.1.2-1.4.6c.8.5 1.8.8 2.8.8s2-.3 2.8-.8c-.4-.4-.9-.6-1.4-.6-.4 0-.8.1-1.1.4z"/><path d="m11.5 13.5c0 .2-.2.4-.4.4s-.4-.2-.4-.4.2-.4.4-.4.4.1.4.4z"/><path d="m21.9 13.5c0 .2-.2.4-.4.4s-.4-.2-.4-.4.2-.4.4-.4.4.1.4.4z"/></g></svg>