<?xml version="1.0" encoding="utf-8"?>
<!-- Generator: Adobe Illustrator 22.0.1, SVG Export Plug-In . SVG Version: 6.00 Build 0)  -->
<svg version="1.1" id="圖層_1" xmlns="http://www.w3.org/2000/svg" xmlns:xlink="http://www.w3.org/1999/xlink" x="0px" y="0px"
	 viewBox="0 0 66 66" style="enable-background:new 0 0 66 66;" xml:space="preserve">
<style type="text/css">
	.st0{fill:#FFFFFF;}
	.st1{font-family:'MicrosoftJhengHeiBold';}
	.st2{font-size:8.6001px;}
</style>
<g>
	<text transform="matrix(1 0 0 1 19.6929 49.1484)"><tspan x="0" y="0" class="st0 st1 st2">Lucky</tspan><tspan x="0" y="8.6" class="st0 st1 st2">Draw</tspan></text>
	<g>
		<path class="st0" d="M38.7,13.1c0.4-0.2,0.8-0.5,1.1-0.9c1.4-1.4,1.9-3.1,1.2-3.8c-0.7-0.7-2.4-0.2-3.8,1.2
			c-1.2,1.2-1.8,2.7-1.4,3.5H38.7z"/>
		<path class="st0" d="M27.3,13.1h2.9c0.4-0.8-0.2-2.3-1.4-3.5c-1.4-1.4-3.1-1.9-3.8-1.2c-0.7,0.7-0.2,2.4,1.2,3.8
			C26.6,12.5,26.9,12.8,27.3,13.1z"/>
		<path class="st0" d="M34.3,13.1c0.2-0.2,0.3-0.5,0.3-0.8c0-0.8-0.7-1.5-1.5-1.5c-0.8,0-1.5,0.7-1.5,1.5c0,0.3,0.1,0.6,0.3,0.8
			H34.3z"/>
		<rect x="18" y="15.3" class="st0" width="7.2" height="3.5"/>
		<rect x="19.9" y="21" class="st0" width="5.3" height="17.8"/>
		<rect x="19.9" y="21" class="st0" width="5.3" height="17.8"/>
		<rect x="27.4" y="15.3" class="st0" width="11.1" height="3.5"/>
		<rect x="40.8" y="15.3" class="st0" width="7.2" height="3.5"/>
		<rect x="40.8" y="21" class="st0" width="5.3" height="17.8"/>
		<g>
			<rect x="40.8" y="21" class="st0" width="5.3" height="17.8"/>
		</g>
		<rect x="27.4" y="21" class="st0" width="11.1" height="17.8"/>
		<g>
			<rect x="27.4" y="21" class="st0" width="11.1" height="17.8"/>
		</g>
	</g>
</g>
</svg>
