<svg enable-background="new 0 0 32 32" viewBox="0 0 32 32" xmlns="http://www.w3.org/2000/svg"><path d="m29.9 19.9c-.4-.6-.9-1-1.5-1.3.2-2.7-.6-4.9-1.8-5-.1-2.3-.8-4.5-2.1-6.4-2.2-3.1-5.7-4.9-9.4-4.9s-7.2 1.8-9.4 4.9c-1.4 1.9-2.1 4.2-2.1 6.4-1.3.1-2.1 2.4-1.8 5.1.2 2.7 1.5 4.9 2.7 4.7l4.1-.4c.3 0 .7-.2.9-.5s.3-.6.3-1l-.8-7.1c-.1-.7-.7-1.2-1.4-1.2l-1.1.1c.1-1.6.6-3.1 1.6-4.5 1.7-2.3 4.2-3.7 7-3.7s5.3 1.3 7 3.7c1 1.4 1.5 2.9 1.6 4.5l-1.1-.1c-.7-.1-1.4.5-1.4 1.2l-.6 7.3c0 .3.1.7.3 1s.5.4.9.5l4.1.4c.9.1 1.8-1.1 2.3-2.7.1.1.2.2.2.3.3.5.4 1.2.2 1.8l-1.3 3c-.4.9-1.3 1.5-2.3 1.5h-1.7c-.1-.5-.6-.8-1.1-.8h-3.2c-.6 0-1.1.5-1.1 1.1v1.3c0 .6.5 1.1 1.1 1.1h3.2c.5 0 .9-.3 1.1-.8h1.7c1.8 0 3.4-1.1 4.1-2.7l1.3-3c.4-1.3.3-2.7-.5-3.8z" fill="#fff"/></svg>