<svg enable-background="new 0 0 29 29" viewBox="0 0 29 29" xmlns="http://www.w3.org/2000/svg"><path d="m28.1 5.7v-.2h-5.3c.3-.5.4-1 .4-1.5 0-1.9-1.6-3.1-3.1-3.1-.8 0-1.6.3-2.1.9l-3.4 3.4-3.4-3.4c-.4-.5-1.2-.8-2.1-.8-1.4 0-3 1.1-3 3 0 .5.1 1.1.4 1.5h-5.2c-.2 0-.3.2-.3.3v6.6c0 .2.1.3.3.3h2v15.3c0 .2.1.3.3.3h22.1c.2 0 .3-.1.3-.3v-15.2h2c.2 0 .3-.1.3-.3v-6.8zm-20.5-1.7c0-1 .8-1.5 1.5-1.5.1 0 .6 0 1.1.5l2.6 2.6h-3.7c-.8-.1-1.5-.7-1.5-1.6zm6.3 3.1v4.1h-11.4v-4.1zm0 5.7v14h-9.1v-14zm2.6-7.3 2.6-2.5c.3-.3.8-.5 1.1-.5.6 0 1.4.4 1.5 1.2.1.4-.1.8-.3 1.2-.4.4-.9.6-1.4.6zm-1.1 21.3v-14h9.1v14zm11.4-19.7v4.1h-11.4v-4.1z" fill="#898989"/></svg>