<svg enable-background="new 0 0 29 29" viewBox="0 0 29 29" xmlns="http://www.w3.org/2000/svg"><g fill="#898989"><path d="m20.8 7.8c-.1-.1-.3-.2-.5-.2-.2 0-.3.1-.5.2l-11.6 12.4c-.2.3-.2.7 0 1 .1.1.3.2.5.2s.3-.1.5-.2l11.6-12.4c.2-.3.2-.7 0-1z"/><path d="m11 13.9c1.6 0 3-1.4 3-3.2s-1.3-3.2-3-3.2-3 1.4-3 3.2 1.4 3.2 3 3.2zm0-5c.9 0 1.7.8 1.7 1.8s-.8 1.8-1.7 1.8-1.7-.8-1.7-1.8c0-.9.8-1.8 1.7-1.8z"/><path d="m18 15.1c-1.6 0-3 1.4-3 3.2s1.3 3.2 3 3.2 3-1.4 3-3.2-1.4-3.2-3-3.2zm1.7 3.1c0 1-.8 1.8-1.7 1.8s-1.7-.8-1.7-1.8.8-1.8 1.7-1.8 1.7.8 1.7 1.8z"/><path d="m14.5 0c-8 0-14.5 6.5-14.5 14.5s6.5 14.5 14.5 14.5 14.5-6.5 14.5-14.5-6.5-14.5-14.5-14.5zm0 1.4c7.2 0 13.1 5.9 13.1 13.1s-5.9 13.1-13.1 13.1-13.1-5.9-13.1-13.1c0-7.2 5.9-13.1 13.1-13.1z"/></g></svg>