<svg enable-background="new 0 0 29 29" viewBox="0 0 29 29" xmlns="http://www.w3.org/2000/svg"><g fill="#898989"><path d="m16.1 7.7c-.4 0-.8.4-.8.8v1.2h-.1c-1.5 0-2.6 1.2-2.6 2.7s1.2 2.7 2.6 2.7h1.8c.7 0 1.1.5 1.1 1.2s-.5 1.2-1.1 1.2h-3.1c-.4 0-.8.4-.8.8s.4.8.8.8h1.5v1.2c0 .4.4.8.8.8s.8-.4.8-.8v-1.2h.1c1.5 0 2.6-1.2 2.6-2.7s-1.2-2.7-2.6-2.7h-1.8c-.7 0-1.1-.5-1.1-1.2s.5-1.2 1.1-1.2h3c.4 0 .8-.4.8-.8s-.4-.8-.8-.8h-1.4v-1.2c0-.4-.4-.8-.8-.8z"/><path d="m10.7 15-3.4 3.3c-.3.3-.8.3-1.1 0s-.3-.8 0-1.1l2-2h-7.4c-.4 0-.8-.3-.8-.8 0-.4.3-.8.8-.8h7.5l-2-2c-.2-.3-.3-.5-.3-.7 0-.1.1-.4.3-.5.3-.3.8-.3 1.1 0l3.3 3.3c.2.5.2 1.1 0 1.3z"/><path d="m24.5 0h-16.7c-2.3 0-4.2 1.9-4.2 4.2v3.8c0 .4.4.8.8.8.4 0 .8-.4.8-.8v-3.8c0-1.5 1.2-2.6 2.6-2.6h16.7c1.5 0 2.5 1.3 2.5 2.6v20.5c0 1.5-1.2 2.6-2.6 2.6h-16.6c-1.5 0-2.6-1.2-2.6-2.6v-3.8c0-.4-.4-.8-.8-.8-.4 0-.8.4-.8.8v3.8c0 2.3 1.9 4.3 4.2 4.3h16.7c2.3 0 4.2-1.9 4.2-4.2v-20.6c0-2.3-1.9-4.2-4.2-4.2z"/></g></svg>