<svg enable-background="new 0 0 24 24" viewBox="0 0 24 24" xmlns="http://www.w3.org/2000/svg"><circle cx="12.1" cy="11.8" fill="#d80027" r="10"/><g fill="#ffda44"><path d="m7.6 7.9.8 2.7h2.8l-2.2 1.6.8 2.7-2.2-1.6-2.3 1.6.9-2.7-2.3-1.6h2.8z"/><path d="m14 17.3-.7-.8-1 .4.6-.9-.7-.8 1 .3.6-.9.1 1 1 .3-1 .4z"/><path d="m15.3 15 .3-1-.9-.7h1.1l.3-1 .3 1h1.1l-.9.6.4 1-.9-.6z"/><path d="m17 9.2-.4.9.7.8-1-.2-.5.9-.1-1-1.1-.1 1-.5-.2-1.1.7.8z"/><path d="m14 6.3-.1 1.1 1 .4-1 .2-.1 1.1-.6-.9-1 .2.7-.8-.6-.9 1 .4z"/></g></svg>