<svg enable-background="new 0 0 32 32" viewBox="0 0 32 32" xmlns="http://www.w3.org/2000/svg"><path d="m16 0c-8.8 0-16 7.2-16 16s7.2 16 16 16 16-7.2 16-16-7.2-16-16-16zm8.2 17.4h-11.1c0 .9.3 1.7.9 2.4.7.8 1.7 1.1 2.6 1.3 2.1.3 4.1-.1 5.9-1.1.1 0 .1-.1.1-.1s0 0 .1 0v3.5c0 .1-.1.2-.2.2-1.3.7-2.7 1.1-4.2 1.1-.9.1-1.9.1-2.8-.1-2.8-.6-5-2.6-5.6-5.5-.6-3.3 1-6.3 4.1-7.7h.1c-.7.8-1.1 1.7-1.2 2.7h6.3v-.5c-.1-.7-.2-1.3-.5-1.9-.5-.8-1.2-1.2-2.1-1.3-1.3-.2-2.5 0-3.7.5-1.8.7-3.3 1.7-4.4 3.1-.3.4-.5.7-.7 1 0-.2 0-.2.1-.4.2-1.7.8-3.3 2-4.6 1.3-1.5 3-2.5 5-2.8s3.8 0 5.5 1c1.6.9 2.7 2.2 3.3 4 .4.9.5 2 .6 3v2.2z" fill="#fff"/></svg>