<svg enable-background="new 0 0 32 32" viewBox="0 0 32 32" xmlns="http://www.w3.org/2000/svg"><path d="m16 0c-8.8 0-16 7.2-16 16s7.2 16 16 16 16-7.2 16-16-7.2-16-16-16zm-4 7.8c1.2-.6 2.6-.9 4-.9 1.6 0 3.1.4 4.5 1.2s2.5 1.8 3.3 3.2h-7.8c-1.1 0-2 .3-2.9.9-.8.7-1.4 1.5-1.7 2.5l-2.6-4.3c.8-1.1 2-2 3.2-2.6zm7.4 8.2c0 1.9-1.6 3.4-3.4 3.4-1.9 0-3.4-1.6-3.4-3.4 0-1.9 1.6-3.4 3.4-3.4 1.9 0 3.4 1.5 3.4 3.4zm-4.7 9c-2.2-.3-4-1.3-5.5-3s-2.2-3.7-2.2-6c0-1.6.3-3.1 1.1-4.5l3.8 6.5c.4.8.9 1.4 1.7 1.9s1.6.8 2.5.8c.6 0 1-.1 1.3-.2zm7.8-2.6c-1.8 1.8-3.9 2.7-6.4 2.7l3.8-6.4c.5-.8.8-1.7.8-2.7 0-1.3-.6-2.5-1.5-3.4h5.3c.5 1 .7 2.3.7 3.4-.1 2.5-1 4.6-2.7 6.4z" fill="#fff"/></svg>