<svg enable-background="new 0 0 32 32" viewBox="0 0 32 32" xmlns="http://www.w3.org/2000/svg"><g fill="#fff"><path d="m22.7 20.2c-.8-.8-1.9-.8-2.7 0-.6.6-1.3 1.3-1.9 1.9-.2.2-.3.2-.5.1-.4-.2-.8-.4-1.2-.7-1.8-1.2-3.4-2.7-4.8-4.3-.7-.8-1.3-1.7-1.7-2.7-.1-.2-.1-.3.1-.5.6-.6 1.3-1.2 1.9-1.9.9-.9.9-1.9 0-2.8-.5-.5-1-1-1.5-1.5s-1-1-1.5-1.5c-.8-.8-1.9-.8-2.7 0-.8.6-1.4 1.2-2.1 1.9-.6.6-.9 1.3-1 2.1-.1 1.3.2 2.6.7 3.8.9 2.5 2.4 4.8 4.1 6.8 2.3 2.8 5.1 5 8.4 6.6 1.5.7 3 1.3 4.7 1.4 1.1.1 2.1-.2 2.9-1.1.5-.6 1.2-1.2 1.7-1.7.9-.9.9-1.9 0-2.8-.9-1.1-1.9-2.1-2.9-3.1z"/><path d="m21.7 15.9 2-.3c-.3-1.8-1.2-3.5-2.5-4.8-1.4-1.4-3.1-2.2-5-2.5l-.3 2c1.5.2 2.8.9 3.9 1.9 1 1 1.6 2.3 1.9 3.7z"/><path d="m24.7 7.3c-2.3-2.3-5.2-3.7-8.3-4.2l-.3 2c2.7.4 5.2 1.6 7.2 3.6 1.9 1.9 3.1 4.2 3.5 6.8l2-.3c-.5-3-1.9-5.7-4.1-7.9z"/></g></svg>