<svg enable-background="new 0 0 100 50" viewBox="0 0 100 50" xmlns="http://www.w3.org/2000/svg" xmlns:xlink="http://www.w3.org/1999/xlink"><linearGradient id="a"><stop offset="0" stop-color="#28a9de"/><stop offset="1" stop-color="#1b89ad"/></linearGradient><linearGradient id="b" gradientTransform="matrix(1 0 0 -1 0 52)" gradientUnits="userSpaceOnUse" x1="34.3854" x2="34.3854" xlink:href="#a" y1="49.1305" y2="42.337"/><linearGradient id="c" gradientTransform="matrix(1 0 0 -1 0 52)" gradientUnits="userSpaceOnUse" x1="53.9471" x2="-.003702" xlink:href="#a" y1="9.6401" y2="39.2216"/><linearGradient id="d" gradientTransform="matrix(1 0 0 -1 0 52)" gradientUnits="userSpaceOnUse" x1="58.966" x2="58.966" xlink:href="#a" y1="50.8383" y2="38.3007"/><linearGradient id="e" gradientTransform="matrix(1 0 0 -1 0 52)" gradientUnits="userSpaceOnUse" x1="76.7308" x2="76.7308" xlink:href="#a" y1="49.8524" y2="42.3866"/><linearGradient id="f" gradientTransform="matrix(1 0 0 -1 0 52)" gradientUnits="userSpaceOnUse" x1="72.3803" x2="72.3803" xlink:href="#a" y1="16.3282" y2="25.8152"/><path d="m31.8 9.9v.1h-4.9v-.1h-5.5l.2.1h-4.8l-1 5.8h5l.3-1.9h23.2l-.3 1.9h5.1l1-5.8h-4.6l.1-.1h-5.5v.1h-2.9v-.1z" fill="#28a9de"/><path d="m34.5 6.1-3.6 1.2c.4.9.7 1.7 1 2.6h5.4c-.4-1.3-1-2.6-1.5-3.8l8-.1c-1.2 1.5-2.3 2.8-3.5 3.9h5.5c.9-.9 1.6-1.6 2.5-2.5l-2.3-1.6 5.2-.1-.4-3.9c-13.4.4-24.5.7-33.2.7.3 1.5.4 2.8.6 3.9l6.2-.1-3.8 1.5c.3.6.6 1.3.9 2h5.5c-.6-1.3-1.2-2.5-1.6-3.6z" fill="url(#b)"/><path d="m16.5 33.1c1.7-1.3 3.3-2.8 4.8-4.2zm9.5-1.9c-3 .9-6.2 1.6-9.9 2.2l-.6.6c.6 1.2 1.2 2.5 1.7 3.8 4.9-.9 9.4-2.2 13.5-3.8 3.8 1.7 8.3 2.8 13.5 3.3 1-1.6 2-3.2 3.3-4.8-3.9-.1-7.4-.6-10.4-1.3 2.9-1.6 5.7-3.3 8.3-5.4l.6-3.2h-19.7c.1-.3.4-.6.6-.9h-.1s-2 3.5-4.5 6.1c1.1 1.2 2.4 2.4 3.7 3.4zm.8-5.5h11.6c-1.9 1.3-4.1 2.5-6.5 3.5-2.1-1.1-3.7-2.1-5.1-3.5z" fill="url(#c)"/><path d="m16.3 33.2.1-.1 4.8-4.2c.4-.4.7-.7 1.2-1.2 2.5-2.6 4.5-6.1 4.5-6.1h.1c.1-.3.4-.6.6-1h21.8l.7-3.9h-20.4c.3-.7.6-1.5 1-2h-4.9c-.3.7-.7 1.5-1 2h-10l-.8 3.9h8.4c-2.9 4.2-6.7 7.8-11 10.7.7 1.3 1.3 2.8 1.9 4.4.9-.6 1.7-1.3 2.6-1.9z" fill="#26a9dd"/><path d="m60.4 11.2 1.8-9.8h-4.8l-1.6 9.8z" fill="url(#d)"/><path d="m51.9 15.5h3l-3.8 21.9h4.7l3.7-21.9h2.8l.7-4.3h-2.6-4.6-3.1z" fill="#28a9de"/><path d="m78.1 9.4.3-1.7h11l.6-3.6h-2.9c-.6-1.2-1.3-2.2-1.9-3.2l-3.6 1.6.9 1.6h-3.5l.6-2.9h-4.4l-.6 2.9h-10.6l-.6 3.6h10.6l-.3 1.7z" fill="url(#e)"/><path d="m67.7 17.5h4.6l-.3 1.9h-4.6zm9 0h5.1l-.3 1.9h-5.1zm-8.2-4.7h4.6l-.3 1.9h-4.6zm13.7 1.8h-4.9l.3-1.9h5.1zm3.7 14.5.6-3.6h-4.2l.3-1.5h2.3l2.6-14.6h-9.4v-.1h-4.4v.1h-9.1l-2.6 14.8h4.5l.3-1.9h4.6l-.3 1.7h4.4l.3-1.7h5.1l-.1 1.2h-2.5l-.3 2h-18.3l-.6 3.6z" fill="#28a9de"/><path d="m59 29.1h5.5l-2.5 2.2c1.6 1.3 2.9 2.8 4.2 3.9l3.6-3.3c-1-1-2.2-1.9-3.2-2.8h10.6l-.3 1.9c-.1.6-.3 1-.7 1.5-.3.4-1 .6-2.2.6-1 0-2.5 0-4.4-.1.3 1.9.3 3.5.3 4.4 3.6 0 6.1-.1 7.1-.3 1.2-.3 2-.7 2.6-1.6.7-.7 1.2-1.9 1.3-3.2l.6-3.2h4.2z" fill="url(#f)"/><g fill="#828080"><path d="m30 47.1c0 .9-.3 1.6-.9 2.2s-1.3.7-2.3.7-1.7-.3-2.5-1c-.7-.7-.9-1.5-.9-2.5v-1.5c0-1 .3-1.9.9-2.5s1.5-1 2.3-1c1 0 1.9.3 2.3.7s.9 1.3.9 2.2h-1.6c0-.6-.1-1-.4-1.3s-.7-.4-1.2-.4c-.4 0-.9.1-1.2.6-.3.4-.4.9-.4 1.6v1.7c0 .6.1 1.2.4 1.6s.7.6 1.3.6.9-.1 1.2-.4.4-.7.4-1.3z"/><path d="m39 44.5c.1-.3.4-.4.7-.7s.6-.3.9-.3c.6 0 1.2.1 1.5.6.3.4.6 1 .6 2v3.6h-1.7v-3.6c0-.4-.1-.9-.3-1-.1-.1-.4-.3-.7-.3s-.4 0-.6.1c-.1.1-.3.1-.4.3v4.5h-1.6v-8.8h1.6z"/><path d="m52 42.3h-1.6v-1.3h1.6zm0 7.6h-1.6v-6.1h1.6z"/><path d="m61.3 43.8.1.9c.1-.3.4-.6.7-.7s.6-.3 1-.3c.6 0 1.2.1 1.5.6.3.4.6 1 .6 1.9v3.8h-1.6v-3.8c0-.4-.1-.7-.3-.9-.1-.1-.4-.3-.7-.3s-.4 0-.6.1-.3.1-.4.4v4.5h-1.6v-6.1h1.3z"/><path d="m76.4 49.9c0-.1-.1-.3-.1-.4s-.1-.3-.1-.4c-.1.3-.4.6-.7.7s-.6.3-1 .3c-.6 0-1.2-.1-1.5-.4s-.6-.7-.6-1.3.3-1 .7-1.5 1.2-.4 2-.4h.9v-.5c0-.3-.1-.6-.3-.7-.1-.1-.4-.3-.7-.3s-.4 0-.6.1c-.1.1 0 .3 0 .6h-1.6c0-.6.1-1 .7-1.3s1.2-.6 1.9-.6 1.3.1 1.7.6c.4.4.7.9.7 1.6v2.5.9s.2.3.2.6h-1.6zm-1.6-1c.3 0 .6 0 .7-.1s.4-.3.4-.4v-.9h-.9c-.3 0-.6.1-.9.3-.3.1-.3.4-.3.6 0 .1 0 .4.1.4.3-.1.7.1.9.1z"/></g></svg>