<svg enable-background="new 0 0 32 32" viewBox="0 0 32 32" xmlns="http://www.w3.org/2000/svg"><g fill="#fff"><path d="m21.8 11.7c-2.8.1-5.2 1-7.1 2.9-2 1.9-2.9 4.3-2.6 7.2-1.1-.2-2.1-.3-3.1-.4-.3 0-.7 0-1 .2-1 .5-1.9 1.2-3 1.8.2-.9.3-1.7.6-2.5.2-.6.1-.9-.4-1.2-3.3-2.3-4.7-5.9-3.7-9.5 1-3.3 3.3-5.4 6.6-6.4 4.4-1.4 9.4 0 12.1 3.5.9 1.3 1.4 2.7 1.6 4.4zm-12.7-1.1c0-.7-.5-1.3-1.2-1.3s-1.3.5-1.3 1.2.5 1.3 1.2 1.3 1.2-.5 1.3-1.2zm6.6-1.3c-.7 0-1.3.6-1.2 1.3 0 .7.6 1.2 1.3 1.2s1.2-.6 1.2-1.3c0-.6-.6-1.2-1.3-1.2z"/><path d="m28 29c-.9-.4-1.7-1-2.5-1.1-.9-.1-1.7.4-2.6.5-2.7.3-5.1-.5-7.2-2.3-3.8-3.5-3.3-8.9 1.1-11.8 3.9-2.6 9.7-1.7 12.4 1.9 2.4 3.1 2.1 7.2-.8 9.9-.9.8-1.2 1.4-.6 2.4.1 0 .2.2.2.5zm-10-9.7c.6 0 1-.4 1-1s-.4-1.1-1-1.1-1.1.5-1 1.1c0 .6.5 1 1 1zm6.5-2c-.5 0-1 .4-1 1s.4 1.1 1 1.1 1-.4 1-1c0-.7-.5-1.1-1-1.1z"/></g></svg>