<?xml version="1.0" encoding="utf-8"?>
<!-- Generator: Adobe Illustrator 21.1.0, SVG Export Plug-In . SVG Version: 6.00 Build 0)  -->
<svg version="1.1" id="Layer_1" xmlns="http://www.w3.org/2000/svg" xmlns:xlink="http://www.w3.org/1999/xlink" x="0px" y="0px"
	 viewBox="0 0 24 24" style="enable-background:new 0 0 24 24;" xml:space="preserve">
<style type="text/css">
	.st0{fill:#5A5A5A;}
	.st1{fill:#28A9E0;}
	.st2{fill:#F0F0F0;}
	.st3{fill:#D80027;}
	.st4{fill:#0052B4;}
	.st5{fill:#FFDA44;}
	.st6{fill:#A2001D;}
	.st7{fill:#BDBDBD;}
	.st8{fill:#FFFFFF;}
	.st9{fill:#8BC34A;}
</style>
<g>
	<g>
		<path class="st7" d="M12,24c6.6,0,12-5.4,12-12S18.6,0,12,0S0,5.4,0,12S5.4,24,12,24z M12,1.7c5.7,0,10.3,4.6,10.3,10.3
			S17.7,22.3,12,22.3S1.7,17.7,1.7,12S6.3,1.7,12,1.7z"/>
		<path class="st7" d="M10,17.3c-0.5,0-0.8,0.4-0.8,0.8S9.5,19,10,19h5.6c0.5,0,0.8-0.4,0.8-0.8s-0.4-0.8-0.8-0.8h-1.9V9.8
			c0-0.5-0.4-0.8-0.8-0.8H10C9.5,9,9.2,9.3,9.2,9.8c0,0.5,0.4,0.8,0.8,0.8h1.9v6.6H10z"/>
		<circle class="st7" cx="11.6" cy="6.2" r="1.4"/>
	</g>
</g>
</svg>
