<svg enable-background="new 0 0 29 29" viewBox="0 0 29 29" xmlns="http://www.w3.org/2000/svg"><path d="m25.6 12.3c0-.1 0-.1 0 0 0-.4.1-.7.1-1 0-6.1-5-11.1-11.1-11.1s-11.1 4.9-11.1 11v.6c0 .1 0 .2.1.3-1.9 1.2-3 3.2-3 5.4 0 3.5 2.7 6.3 6.3 6.4.2 0 .4-.1.5-.2s.2-.3.2-.5v-11.3c0-.2-.1-.4-.2-.5s-.3-.2-.6-.2c-.6 0-1.1.1-1.7.3 0-.1 0-.1 0-.2 0-5.2 4.2-9.4 9.4-9.4s9.5 4.2 9.5 9.3v.2c-.6-.2-1.2-.3-1.9-.3-.2 0-.4.1-.5.2s-.2.3-.2.5v11.3c0 .2.1.4.2.5s.3.2.6.2h.5c-.9 1.8-2.6 2.4-3.4 2.5-.3-.6-.9-1-1.5-1h-2.1c-.9 0-1.7.7-1.7 1.7 0 .9.7 1.7 1.7 1.7h2.1c.6 0 1.1-.3 1.4-.7.8-.1 4.3-.9 5.4-4.6 2.4-1 3.9-3.3 3.9-5.9-.2-2.1-1.2-4-2.9-5.2zm1.2 5.2c0 2.4-1.7 4.4-4 4.8v-9.6c2.3.5 4 2.5 4 4.8zm-20.6-4.8v9.6c-2.3-.4-4-2.4-4-4.8s1.7-4.3 4-4.8zm9.4 14.3h2.1c.1 0 .1.1.1.1 0 .1-.1.1-.1.1h-2.1c-.1 0-.1-.1-.1-.1 0-.1 0-.1.1-.1z" fill="#898989"/></svg>